<svg width="60" height="60" viewBox="0 0 60 60" fill="none" xmlns="http://www.w3.org/2000/svg">
<path d="M25.8984 12C25.458 11.5518 24.9101 11.2239 24.307 11.0475C23.7039 10.8711 23.0656 10.852 22.4531 10.9922C21.835 11.1288 21.2615 11.4197 20.7861 11.8377C20.3107 12.2557 19.9489 12.7872 19.7344 13.3828L7.10154 48.0938C6.90454 48.6587 6.84469 49.2624 6.92694 49.855C7.00919 50.4476 7.23118 51.0122 7.57459 51.5021C7.918 51.992 8.37298 52.3933 8.902 52.6727C9.43102 52.9522 10.0189 53.1019 10.6172 53.1094C11.0555 53.11 11.491 53.0388 11.9062 52.8984L46.6172 40.2656C47.2127 40.0511 47.7443 39.6892 48.1623 39.2138C48.5803 38.7385 48.8712 38.165 49.0078 37.5469C49.148 36.9343 49.1289 36.2961 48.9525 35.693C48.7761 35.0899 48.4482 34.542 48 34.1016L25.8984 12ZM14.9531 37.4531L19.4531 25.0781L34.9219 40.5469L22.5469 45.0469L14.9531 37.4531ZM37.5 16.875C37.5345 15.6069 37.8381 14.3606 38.3906 13.2188C39.6328 10.7344 41.9765 9.375 45 9.375C46.5703 9.375 47.5781 8.83594 48.2109 7.6875C48.5335 7.03717 48.7171 6.32677 48.75 5.60156C48.75 5.35643 48.7986 5.11373 48.8931 4.88754C48.9876 4.66136 49.1261 4.4562 49.3005 4.28395C49.475 4.11171 49.6819 3.97582 49.9092 3.88416C50.1366 3.7925 50.3799 3.7469 50.625 3.75C51.1223 3.75 51.5992 3.94754 51.9508 4.29917C52.3024 4.65081 52.5 5.12772 52.5 5.625C52.5 8.64844 50.5078 13.125 45 13.125C43.4297 13.125 42.4219 13.6641 41.789 14.8125C41.4664 15.4628 41.2828 16.1732 41.25 16.8984C41.25 17.1436 41.2013 17.3863 41.1068 17.6125C41.0123 17.8386 40.8738 18.0438 40.6994 18.216C40.525 18.3883 40.3181 18.5242 40.0907 18.6158C39.8634 18.7075 39.6201 18.7531 39.375 18.75C38.8777 18.75 38.4008 18.5525 38.0491 18.2008C37.6975 17.8492 37.5 17.3723 37.5 16.875ZM31.875 9.375V3.75C31.875 3.25272 32.0725 2.77581 32.4242 2.42417C32.7758 2.07254 33.2527 1.875 33.75 1.875C34.2473 1.875 34.7242 2.07254 35.0758 2.42417C35.4274 2.77581 35.625 3.25272 35.625 3.75V9.375C35.625 9.87228 35.4274 10.3492 35.0758 10.7008C34.7242 11.0525 34.2473 11.25 33.75 11.25C33.2527 11.25 32.7758 11.0525 32.4242 10.7008C32.0725 10.3492 31.875 9.87228 31.875 9.375ZM55.7109 28.6641C56.063 29.0196 56.2605 29.4997 56.2605 30C56.2605 30.5003 56.063 30.9804 55.7109 31.3359C55.3525 31.6825 54.8735 31.8762 54.375 31.8762C53.8764 31.8762 53.3974 31.6825 53.039 31.3359L49.289 27.5859C48.99 27.2216 48.8372 26.7591 48.8604 26.2884C48.8835 25.8177 49.0809 25.3724 49.4141 25.0391C49.7474 24.7059 50.1927 24.5085 50.6634 24.4854C51.1341 24.4623 51.5966 24.6151 51.9609 24.9141L55.7109 28.6641ZM56.8359 18.6562L51.2109 20.5312C51.0226 20.5964 50.8243 20.6281 50.625 20.625C50.179 20.6251 49.7477 20.4663 49.4083 20.177C49.0689 19.8878 48.8437 19.487 48.7731 19.0467C48.7026 18.6064 48.7912 18.1553 49.0233 17.7745C49.2553 17.3937 49.6154 17.108 50.039 16.9688L55.664 15.0938C55.898 15.0168 56.1447 14.9867 56.3903 15.0051C56.6359 15.0235 56.8754 15.0902 57.0952 15.2011C57.315 15.3121 57.5108 15.4653 57.6714 15.652C57.832 15.8387 57.9543 16.0551 58.0312 16.2891C58.1082 16.523 58.1383 16.7698 58.1199 17.0153C58.1014 17.2609 58.0348 17.5004 57.9238 17.7202C57.8128 17.94 57.6596 18.1358 57.473 18.2964C57.2863 18.457 57.0698 18.5793 56.8359 18.6562Z" fill="#59BDB5"/>
</svg>
